<svg width="101" height="100" fill="none" xmlns="http://www.w3.org/2000/svg"><circle cx="50.023" cy="50" r="45" fill="url(#paint0_linear_13_21731)"/><circle cx="50.023" cy="50" r="40.5" fill="url(#paint1_linear_13_21731)"/><circle cx="50.023" cy="50" r="36" fill="url(#paint2_linear_13_21731)"/><path d="M61.849 38.262c0 6.44-5.221 11.661-11.661 11.661-6.44 0-11.662-5.22-11.662-11.661 0-6.44 5.221-11.662 11.662-11.662 6.44 0 11.66 5.222 11.66 11.662z" fill="url(#paint3_linear_13_21731)"/><mask id="a" style="mask-type:alpha" maskUnits="userSpaceOnUse" x="30" y="33" width="40" height="41"><path d="M69.933 53.49c0 10.996-8.914 19.91-19.91 19.91-10.995 0-19.909-8.914-19.909-19.91 0-10.995 8.914-19.908 19.91-19.908 10.995 0 19.909 8.913 19.909 19.909z" fill="#D9D9D9"/></mask><g mask="url(#a)"><path d="M30.114 54.893v19.99h39.981v-19.99h-11.66l-8.332 8.33-8.328-8.33h-11.66z" fill="url(#paint4_linear_13_21731)"/></g><defs><linearGradient id="paint0_linear_13_21731" x1="50.023" y1=".05" x2="50.023" y2="95" gradientUnits="userSpaceOnUse"><stop stop-color="#fff"/><stop offset=".161" stop-color="#FCEA9C"/><stop offset=".531" stop-color="#F8D33A"/><stop offset=".818" stop-color="#D0980B"/></linearGradient><linearGradient id="paint1_linear_13_21731" x1="50.023" y1="9.5" x2="50.478" y2="100.511" gradientUnits="userSpaceOnUse"><stop offset=".198" stop-color="#D0980B"/><stop offset=".49" stop-color="#F8D33A"/><stop offset=".802" stop-color="#FCEA9C"/><stop offset="1" stop-color="#fff"/></linearGradient><linearGradient id="paint2_linear_13_21731" x1="50.023" y1="14" x2="50.491" y2="108.442" gradientUnits="userSpaceOnUse"><stop offset=".094" stop-color="#F8D33A"/><stop offset=".677" stop-color="#D0980B"/></linearGradient><linearGradient id="paint3_linear_13_21731" x1="50.188" y1="49.923" x2="50.029" y2="26.6" gradientUnits="userSpaceOnUse"><stop stop-color="#F8D33A"/><stop offset=".583" stop-color="#FCEA9C"/><stop offset="1" stop-color="#fff"/></linearGradient><linearGradient id="paint4_linear_13_21731" x1="49.531" y1="53.485" x2="50.105" y2="74.883" gradientUnits="userSpaceOnUse"><stop stop-color="#fff"/><stop offset=".5" stop-color="#FCEA9C"/><stop offset="1" stop-color="#F8D33A"/></linearGradient></defs></svg>