<svg width="101" height="100" fill="none" xmlns="http://www.w3.org/2000/svg"><path fill="url(#paint0_linear_13_21729)" d="M9.523 9.5h81v81h-81z"/><path fill="url(#paint1_linear_13_21729)" d="M13.573 13.55h72.9v72.9h-72.9z"/><path fill="url(#paint2_linear_13_21729)" d="M17.623 17.6h64.8v64.8h-64.8z"/><path d="M60.332 33.619l-10.309-5.952-10.309 5.952 10.309 5.952 10.309-5.952z" fill="#FCEA9C"/><path d="M50.023 51.474V39.57l-10.308-5.952v11.903l10.308 5.952z" fill="url(#paint3_linear_13_21729)"/><path d="M50.023 51.474V39.57l10.309-5.952v11.903l-10.309 5.952z" fill="url(#paint4_linear_13_21729)"/><path d="M48.523 54.478l-10.309-5.952-10.308 5.952 10.308 5.951 10.309-5.951z" fill="#FCEA9C"/><path d="M38.214 72.333V60.429l-10.308-5.951V66.38l10.308 5.952z" fill="url(#paint5_linear_13_21729)"/><path d="M38.215 72.333V60.429l10.308-5.951V66.38l-10.309 5.952z" fill="url(#paint6_linear_13_21729)"/><path d="M72.14 54.478l-10.308-5.952-10.309 5.952 10.309 5.951 10.308-5.951z" fill="#FCEA9C"/><path d="M61.832 72.333V60.429l-10.309-5.951V66.38l10.31 5.952z" fill="url(#paint7_linear_13_21729)"/><path d="M61.832 72.333V60.429l10.309-5.951V66.38l-10.309 5.952z" fill="url(#paint8_linear_13_21729)"/><defs><linearGradient id="paint0_linear_13_21729" x1="50.023" y1="5.045" x2="50.023" y2="90.5" gradientUnits="userSpaceOnUse"><stop stop-color="#fff"/><stop offset=".161" stop-color="#FCEA9C"/><stop offset=".531" stop-color="#F8D33A"/><stop offset=".818" stop-color="#D0980B"/></linearGradient><linearGradient id="paint1_linear_13_21729" x1="50.023" y1="13.55" x2="50.433" y2="95.46" gradientUnits="userSpaceOnUse"><stop offset=".198" stop-color="#D0980B"/><stop offset=".49" stop-color="#F8D33A"/><stop offset=".802" stop-color="#FCEA9C"/><stop offset="1" stop-color="#fff"/></linearGradient><linearGradient id="paint2_linear_13_21729" x1="50.023" y1="17.6" x2="50.444" y2="102.597" gradientUnits="userSpaceOnUse"><stop offset=".094" stop-color="#F8D33A"/><stop offset=".677" stop-color="#D0980B"/></linearGradient><linearGradient id="paint3_linear_13_21729" x1="44.869" y1="33.619" x2="44.869" y2="51.474" gradientUnits="userSpaceOnUse"><stop stop-color="#fff"/><stop offset="1" stop-color="#FCEA9C"/></linearGradient><linearGradient id="paint4_linear_13_21729" x1="55.359" y1="14.303" x2="54.811" y2="51.468" gradientUnits="userSpaceOnUse"><stop stop-color="#FCEA9C"/><stop offset="1" stop-color="#F8D33A"/></linearGradient><linearGradient id="paint5_linear_13_21729" x1="33.06" y1="54.478" x2="33.06" y2="72.333" gradientUnits="userSpaceOnUse"><stop stop-color="#fff"/><stop offset="1" stop-color="#FCEA9C"/></linearGradient><linearGradient id="paint6_linear_13_21729" x1="43.55" y1="35.162" x2="43.002" y2="72.327" gradientUnits="userSpaceOnUse"><stop stop-color="#FCEA9C"/><stop offset="1" stop-color="#F8D33A"/></linearGradient><linearGradient id="paint7_linear_13_21729" x1="56.678" y1="54.478" x2="56.678" y2="72.333" gradientUnits="userSpaceOnUse"><stop stop-color="#fff"/><stop offset="1" stop-color="#FCEA9C"/></linearGradient><linearGradient id="paint8_linear_13_21729" x1="67.167" y1="35.162" x2="66.62" y2="72.327" gradientUnits="userSpaceOnUse"><stop stop-color="#FCEA9C"/><stop offset="1" stop-color="#F8D33A"/></linearGradient></defs></svg>