<svg width="101" height="100" fill="none" xmlns="http://www.w3.org/2000/svg"><path d="M81.783 18.12L49.94 5 18.143 18.24 5.023 50.084l13.24 31.796L50.108 95l31.795-13.24 13.12-31.844-13.24-31.796z" fill="url(#paint0_linear_13_21730)"/><path d="M78.607 21.308L49.947 9.5 21.331 21.416 9.523 50.076 21.44 78.692 50.099 90.5l28.616-11.916 11.808-28.66-11.916-28.616z" fill="url(#paint1_linear_13_21730)"/><path d="M75.114 24.815L49.956 14.45 24.838 24.91 14.473 50.066l10.46 25.118L50.09 85.55l25.118-10.46 10.365-25.157-10.46-25.118z" fill="url(#paint2_linear_13_21730)"/><path d="M24.373 41.41l25.53-8.81 25.77 8.81-25.77 8.808-25.53-8.809z" fill="url(#paint3_linear_13_21730)"/><mask id="a" style="mask-type:alpha" maskUnits="userSpaceOnUse" x="32" y="46" width="37" height="22"><path d="M32.574 67.118V46.903l17.354 5.912 18.689-6.484v20.787H32.573z" fill="#D9D9D9"/></mask><g mask="url(#a)"><path fill-rule="evenodd" clip-rule="evenodd" d="M66.71 47.093H33.527v13.731h.037c.569 2.982 7.763 5.34 16.555 5.34 8.791 0 15.986-2.358 16.555-5.34h.036v-13.73z" fill="url(#paint4_linear_13_21730)"/></g><mask id="b" style="mask-type:alpha" maskUnits="userSpaceOnUse" x="32" y="46" width="37" height="22"><path d="M32.574 67.118V46.903l17.354 5.912 18.689-6.484v20.787H32.573z" fill="url(#paint5_linear_13_21730)"/></mask><g mask="url(#b)"><path fill-rule="evenodd" clip-rule="evenodd" d="M49.928 66.163h.19c8.792 0 15.986-2.357 16.556-5.339h.036V47.093H49.928v19.07z" fill="url(#paint6_linear_13_21730)"/></g><path fill-rule="evenodd" clip-rule="evenodd" d="M72.05 41.372h1.526v8.391h.763v1.145h-.517c.317.28.517.688.517 1.144v5.721a1.526 1.526 0 01-3.052 0v-5.721c0-.456.2-.865.517-1.145h-.517v-1.144h.763v-8.39z" fill="url(#paint7_linear_13_21730)"/><path fill-rule="evenodd" clip-rule="evenodd" d="M49.927 50.21l25.746-8.801-25.746-8.8v17.6z" fill="url(#paint8_linear_13_21730)"/><defs><linearGradient id="paint0_linear_13_21730" x1="50.023" y1=".05" x2="50.023" y2="95" gradientUnits="userSpaceOnUse"><stop stop-color="#fff"/><stop offset=".161" stop-color="#FCEA9C"/><stop offset=".531" stop-color="#F8D33A"/><stop offset=".818" stop-color="#D0980B"/></linearGradient><linearGradient id="paint1_linear_13_21730" x1="50.023" y1="9.5" x2="50.478" y2="100.511" gradientUnits="userSpaceOnUse"><stop offset=".198" stop-color="#D0980B"/><stop offset=".49" stop-color="#F8D33A"/><stop offset=".802" stop-color="#FCEA9C"/><stop offset="1" stop-color="#fff"/></linearGradient><linearGradient id="paint2_linear_13_21730" x1="50.023" y1="14.45" x2="50.485" y2="107.711" gradientUnits="userSpaceOnUse"><stop offset=".094" stop-color="#F8D33A"/><stop offset=".677" stop-color="#D0980B"/></linearGradient><linearGradient id="paint3_linear_13_21730" x1="38.323" y1="31.55" x2="39.031" y2="50.59" gradientUnits="userSpaceOnUse"><stop stop-color="#fff"/><stop offset=".63" stop-color="#FCEA9C"/><stop offset="1" stop-color="#F8D33A"/></linearGradient><linearGradient id="paint4_linear_13_21730" x1="50.474" y1="46.4" x2="50.119" y2="66.164" gradientUnits="userSpaceOnUse"><stop stop-color="#fff"/><stop offset=".599" stop-color="#FCEA9C"/></linearGradient><linearGradient id="paint5_linear_13_21730" x1="50.473" y1="57.65" x2="50.595" y2="67.118" gradientUnits="userSpaceOnUse"><stop stop-color="#fff"/><stop offset="1" stop-color="#FCEA9C"/></linearGradient><linearGradient id="paint6_linear_13_21730" x1="38.323" y1="108.05" x2="73.423" y2="44.15" gradientUnits="userSpaceOnUse"><stop stop-color="#D0980B"/><stop offset=".69" stop-color="#F8D33A"/><stop offset="1" stop-color="#FCEA9C"/></linearGradient><linearGradient id="paint7_linear_13_21730" x1="76.123" y1="50" x2="68.473" y2="50" gradientUnits="userSpaceOnUse"><stop stop-color="#FCEA9C"/><stop offset="1" stop-color="#F8D33A"/></linearGradient><linearGradient id="paint8_linear_13_21730" x1="55.423" y1="84.2" x2="51.823" y2="30.2" gradientUnits="userSpaceOnUse"><stop stop-color="#D0980B"/><stop offset=".591" stop-color="#F8D33A"/><stop offset="1" stop-color="#FCEA9C"/></linearGradient></defs></svg>