<svg width="400" height="162" fill="none" xmlns="http://www.w3.org/2000/svg"><path d="M49.839 151.78c-2.482 0-4.079-1.584-4.079-4.699 0-3.115 1.597-4.831 4.079-4.831 1.69 0 2.772.686 3.445 2.165l-1.73.897c-.237-.765-.725-1.28-1.715-1.28-1.175 0-1.954.792-1.954 2.244v1.478c0 1.452.78 2.244 1.954 2.244.99 0 1.558-.62 1.835-1.373l1.636.951c-.686 1.399-1.782 2.204-3.471 2.204zm7.581 0c-2.032 0-3.247-1.399-3.247-3.63s1.215-3.617 3.247-3.617c2.033 0 3.248 1.386 3.248 3.617s-1.215 3.63-3.248 3.63zm0-1.544c.766 0 1.215-.502 1.215-1.373v-1.412c0-.872-.449-1.373-1.215-1.373-.765 0-1.214.501-1.214 1.373v1.412c0 .871.449 1.373 1.214 1.373zm7.465 1.386H64c-1.333 0-1.94-.673-1.94-1.901v-7.867h1.953v8.25h.871v1.518zm3.892 0h-.884c-1.333 0-1.94-.673-1.94-1.901v-7.867h1.953v8.25h.871v1.518zm4.063.158c-2.126 0-3.327-1.412-3.327-3.63 0-2.191 1.162-3.617 3.247-3.617 2.297 0 3.221 1.664 3.221 3.538v.581h-4.448v.105c0 .911.488 1.492 1.53 1.492.82 0 1.268-.383 1.704-.832l.977 1.215c-.62.713-1.637 1.148-2.904 1.148zm-.04-5.808c-.779 0-1.267.568-1.267 1.426v.105h2.428v-.118c0-.845-.382-1.413-1.161-1.413zm7.36 5.808c-2.086 0-3.235-1.412-3.235-3.63 0-2.217 1.149-3.617 3.234-3.617 1.4 0 2.363.674 2.772 1.809l-1.584.686c-.118-.528-.501-.95-1.188-.95-.792 0-1.2.567-1.2 1.439v1.293c0 .871.408 1.426 1.2 1.426.78 0 1.096-.475 1.294-1.03l1.518.66c-.462 1.32-1.452 1.914-2.812 1.914zm7.61-.158h-1.16c-1.347 0-2.06-.7-2.06-2.02v-3.392h-.976v-1.518h.488c.528 0 .687-.264.687-.739v-1.136h1.755v1.875h1.373v1.518h-1.373v3.894h1.267v1.518zm10.787 0h-1.083c-.7 0-1.2-.475-1.32-1.215h-.079c-.211.898-.977 1.373-2.033 1.373-1.386 0-2.151-.818-2.151-2.019 0-1.466 1.135-2.165 2.97-2.165h1.095v-.436c0-.673-.33-1.095-1.148-1.095-.779 0-1.188.396-1.492.818l-1.161-1.03c.554-.818 1.346-1.32 2.798-1.32 1.954 0 2.957.898 2.957 2.535v3.036h.647v1.518zm-3.789-1.201c.647 0 1.188-.264 1.188-.898v-.818h-.95c-.752 0-1.148.277-1.148.778v.198c0 .502.33.74.91.74zm7.925 1.201h-.885c-1.333 0-1.94-.673-1.94-1.901v-7.867h1.953v8.25h.872v1.518zm3.893 0h-.885c-1.333 0-1.94-.673-1.94-1.901v-7.867h1.953v8.25h.872v1.518zm7.881 0h-1.162c-1.346 0-2.059-.7-2.059-2.02v-3.392h-.977v-1.518h.489c.528 0 .686-.264.686-.739v-1.136h1.756v1.875h1.372v1.518H113.2v3.894h1.267v1.518zm1.463 0v-9.768h1.953v4.013h.079c.251-.726.832-1.334 1.928-1.334 1.412 0 2.164 1.004 2.164 2.746v4.343h-1.953v-4.185c0-.884-.251-1.32-.964-1.32-.633 0-1.254.33-1.254 1.017v4.488h-1.953zm10.754.158c-2.126 0-3.327-1.412-3.327-3.63 0-2.191 1.162-3.617 3.247-3.617 2.297 0 3.221 1.664 3.221 3.538v.581h-4.448v.105c0 .911.488 1.492 1.531 1.492.818 0 1.267-.383 1.703-.832l.977 1.215c-.621.713-1.637 1.148-2.904 1.148zm-.04-5.808c-.779 0-1.267.568-1.267 1.426v.105h2.429v-.118c0-.845-.383-1.413-1.162-1.413zm8.657-2.019c-.792 0-1.135-.41-1.135-.964v-.29c0-.555.343-.964 1.135-.964s1.136.409 1.136.964v.29c0 .554-.344.964-1.136.964zm-.976 7.669v-6.93h1.953v6.93h-1.953zm6.575.158c-2.086 0-3.234-1.412-3.234-3.63 0-2.217 1.148-3.617 3.234-3.617 1.399 0 2.363.674 2.772 1.809l-1.584.686c-.119-.528-.502-.95-1.188-.95-.792 0-1.201.567-1.201 1.439v1.293c0 .871.409 1.426 1.201 1.426.779 0 1.095-.475 1.293-1.03l1.518.66c-.462 1.32-1.452 1.914-2.811 1.914zm6.768 0c-2.033 0-3.247-1.399-3.247-3.63s1.214-3.617 3.247-3.617 3.247 1.386 3.247 3.617-1.214 3.63-3.247 3.63zm0-1.544c.765 0 1.214-.502 1.214-1.373v-1.412c0-.872-.449-1.373-1.214-1.373-.766 0-1.215.501-1.215 1.373v1.412c0 .871.449 1.373 1.215 1.373zm6.593 1.386h-1.954v-6.93h1.954v1.175h.079c.251-.726.831-1.334 1.927-1.334 1.412 0 2.165 1.004 2.165 2.746v4.343h-1.954v-4.185c0-.884-.251-1.32-.963-1.32-.634 0-1.254.33-1.254 1.017v4.488zm8.259.158c-1.333 0-2.205-.449-2.917-1.241l1.148-1.161c.488.541 1.082.884 1.835.884.765 0 1.029-.251 1.029-.66 0-.343-.211-.515-.699-.581l-.753-.092c-1.57-.198-2.336-.884-2.336-2.138 0-1.334 1.043-2.258 2.693-2.258 1.452 0 2.125.396 2.825 1.083l-1.122 1.148c-.436-.435-1.017-.713-1.598-.713-.66 0-.924.238-.924.581 0 .37.159.568.726.647l.779.106c1.505.198 2.284.884 2.284 2.085 0 1.333-1.188 2.31-2.97 2.31zm11.012-.158h-1.162c-1.346 0-2.059-.7-2.059-2.02v-3.392h-.977v-1.518h.489c.528 0 .686-.264.686-.739v-1.136h1.756v1.875h1.372v1.518h-1.372v3.894h1.267v1.518zm4.222.158c-2.032 0-3.247-1.399-3.247-3.63s1.215-3.617 3.247-3.617c2.033 0 3.248 1.386 3.248 3.617s-1.215 3.63-3.248 3.63zm0-1.544c.766 0 1.215-.502 1.215-1.373v-1.412c0-.872-.449-1.373-1.215-1.373-.765 0-1.214.501-1.214 1.373v1.412c0 .871.449 1.373 1.214 1.373zm11.851 1.386v-1.162h-.066c-.237.7-.805 1.32-1.94 1.32-1.413 0-2.165-.99-2.165-2.732v-4.356h1.954v4.184c0 .845.277 1.32.99 1.32.607 0 1.227-.343 1.227-1.003v-4.501h1.954v6.93h-1.954zm5.725 0h-1.954v-6.93h1.954v1.175h.079c.251-.726.832-1.334 1.927-1.334 1.413 0 2.165 1.004 2.165 2.746v4.343h-1.953v-4.185c0-.884-.251-1.32-.964-1.32-.634 0-1.254.33-1.254 1.017v4.488zm8.735 0h-.885c-1.333 0-1.94-.673-1.94-1.901v-7.867h1.953v8.25h.872v1.518zm3.982.158c-2.032 0-3.247-1.399-3.247-3.63s1.215-3.617 3.247-3.617c2.033 0 3.248 1.386 3.248 3.617s-1.215 3.63-3.248 3.63zm0-1.544c.766 0 1.215-.502 1.215-1.373v-1.412c0-.872-.449-1.373-1.215-1.373-.765 0-1.214.501-1.214 1.373v1.412c0 .871.449 1.373 1.214 1.373zm7.438 1.544c-2.086 0-3.234-1.412-3.234-3.63 0-2.217 1.148-3.617 3.234-3.617 1.399 0 2.363.674 2.772 1.809l-1.584.686c-.119-.528-.502-.95-1.188-.95-.792 0-1.201.567-1.201 1.439v1.293c0 .871.409 1.426 1.201 1.426.779 0 1.096-.475 1.294-1.03l1.518.66c-.462 1.32-1.452 1.914-2.812 1.914zm4.021-.158v-9.768h1.953v5.768h.08l.858-1.28 1.386-1.65h2.164l-2.31 2.653 2.574 4.277h-2.323l-1.557-2.931-.872.977v1.954h-1.953zm14.328 0h-1.162c-1.346 0-2.059-.7-2.059-2.02v-3.392h-.977v-1.518h.489c.528 0 .686-.264.686-.739v-1.136h1.756v1.875h1.373v1.518h-1.373v3.894h1.267v1.518zm1.463 0v-9.768h1.953v4.013h.08c.25-.726.831-1.334 1.927-1.334 1.412 0 2.165 1.004 2.165 2.746v4.343h-1.954v-4.185c0-.884-.251-1.32-.964-1.32-.633 0-1.254.33-1.254 1.017v4.488h-1.953zm10.754.158c-2.125 0-3.327-1.412-3.327-3.63 0-2.191 1.162-3.617 3.248-3.617 2.296 0 3.22 1.664 3.22 3.538v.581h-4.448v.105c0 .911.488 1.492 1.531 1.492.819 0 1.267-.383 1.703-.832l.977 1.215c-.621.713-1.637 1.148-2.904 1.148zm-.04-5.808c-.779 0-1.267.568-1.267 1.426v.105h2.429v-.118c0-.845-.383-1.413-1.162-1.413zm7.786 5.65v-9.214h4.475c1.518 0 2.429.937 2.429 2.363 0 1.412-.779 1.94-1.716 1.98v.079c.871 0 2.072.581 2.072 2.165 0 1.452-1.016 2.627-2.376 2.627h-4.884zm2.007-3.802v2.112h2.31c.528 0 .858-.303.858-.831v-.449c0-.528-.33-.832-.858-.832h-2.31zm0-3.722v2.085h1.993c.528 0 .845-.316.845-.844v-.396c0-.528-.317-.845-.845-.845h-1.993zm10.784 7.524v-1.162h-.066c-.238.7-.805 1.32-1.94 1.32-1.413 0-2.165-.99-2.165-2.732v-4.356h1.953v4.184c0 .845.278 1.32.99 1.32.608 0 1.228-.343 1.228-1.003v-4.501h1.954v6.93h-1.954zm4.748-7.669c-.792 0-1.135-.41-1.135-.964v-.29c0-.555.343-.964 1.135-.964s1.135.409 1.135.964v.29c0 .554-.343.964-1.135.964zm-.977 7.669v-6.93h1.954v6.93h-1.954zm6.602 0h-.884c-1.334 0-1.941-.673-1.941-1.901v-7.867h1.954v8.25h.871v1.518zm5.422 0v-1.162h-.066c-.198.753-.964 1.32-1.861 1.32-1.756 0-2.667-1.28-2.667-3.63 0-2.349.911-3.617 2.667-3.617.897 0 1.663.555 1.861 1.32h.066v-3.999h1.953v9.768h-1.953zm-1.281-1.426c.74 0 1.281-.383 1.281-1.016v-2.046c0-.634-.541-1.017-1.281-1.017-.739 0-1.28.568-1.28 1.439v1.201c0 .872.541 1.439 1.28 1.439zm7.952 1.584c-2.125 0-3.326-1.412-3.326-3.63 0-2.191 1.161-3.617 3.247-3.617 2.297 0 3.221 1.664 3.221 3.538v.581h-4.449v.105c0 .911.489 1.492 1.531 1.492.819 0 1.268-.383 1.703-.832l.977 1.215c-.62.713-1.637 1.148-2.904 1.148zm-.04-5.808c-.778 0-1.267.568-1.267 1.426v.105h2.429v-.118c0-.845-.383-1.413-1.162-1.413zm6.515 5.65h-1.954v-6.93h1.954v1.505h.066c.158-.766.686-1.505 1.769-1.505h.343v1.821h-.488c-1.136 0-1.69.251-1.69 1.056v4.053zm5.512-5.465h-1.743v-4.303h1.743v4.303zm4.152 5.623c-1.333 0-2.204-.449-2.917-1.241l1.148-1.161c.489.541 1.083.884 1.835.884.766 0 1.03-.251 1.03-.66 0-.343-.211-.515-.7-.581l-.752-.092c-1.571-.198-2.337-.884-2.337-2.138 0-1.334 1.043-2.258 2.693-2.258 1.452 0 2.125.396 2.825 1.083l-1.122 1.148c-.436-.435-1.016-.713-1.597-.713-.66 0-.924.238-.924.581 0 .37.158.568.726.647l.779.106c1.504.198 2.283.884 2.283 2.085 0 1.333-1.188 2.31-2.97 2.31zm7.527-.158v-9.214h4.475c1.518 0 2.429.937 2.429 2.363 0 1.412-.779 1.94-1.716 1.98v.079c.871 0 2.072.581 2.072 2.165 0 1.452-1.016 2.627-2.376 2.627h-4.884zm2.007-3.802v2.112h2.31c.528 0 .858-.303.858-.831v-.449c0-.528-.33-.832-.858-.832h-2.31zm0-3.722v2.085h1.993c.528 0 .845-.316.845-.844v-.396c0-.528-.317-.845-.845-.845h-1.993zm12.896 7.524h-1.082c-.7 0-1.201-.475-1.32-1.215h-.079c-.212.898-.977 1.373-2.033 1.373-1.386 0-2.152-.818-2.152-2.019 0-1.466 1.135-2.165 2.97-2.165h1.096v-.436c0-.673-.33-1.095-1.149-1.095-.778 0-1.188.396-1.491.818l-1.162-1.03c.555-.818 1.347-1.32 2.799-1.32 1.953 0 2.956.898 2.956 2.535v3.036h.647v1.518zm-3.788-1.201c.647 0 1.188-.264 1.188-.898v-.818h-.951c-.752 0-1.148.277-1.148.778v.198c0 .502.33.74.911.74zm9.35 1.201v-1.162h-.066c-.198.753-.964 1.32-1.862 1.32-1.755 0-2.666-1.28-2.666-3.63 0-2.349.911-3.617 2.666-3.617.898 0 1.664.555 1.862 1.32h.066v-3.999h1.953v9.768h-1.953zm-1.281-1.426c.739 0 1.281-.383 1.281-1.016v-2.046c0-.634-.542-1.017-1.281-1.017-.739 0-1.28.568-1.28 1.439v1.201c0 .872.541 1.439 1.28 1.439zm11.476 1.927c0 1.466-.924 2.297-3.748 2.297-2.403 0-3.287-.607-3.287-1.61 0-.766.488-1.215 1.293-1.32v-.145c-.66-.119-1.003-.621-1.003-1.215 0-.726.647-1.095 1.294-1.227v-.053c-.832-.383-1.241-1.083-1.241-1.98 0-1.399.977-2.337 2.97-2.337.436 0 .832.04 1.175.132v-.264c0-.726.383-1.042 1.043-1.042h1.095v1.452h-1.531v.079c.805.383 1.188 1.095 1.188 1.98 0 1.386-.964 2.297-2.97 2.297a4.87 4.87 0 01-1.228-.146.65.65 0 00-.303.555c0 .33.237.528.831.528h2.007c1.689 0 2.415.739 2.415 2.019zm-1.834.264c0-.396-.291-.62-1.07-.62H338.1a.892.892 0 00-.25.62c0 .502.396.74 1.452.74h.792c1.056 0 1.452-.238 1.452-.74zm-1.888-4.501c.766 0 1.148-.343 1.148-.95v-.159c0-.607-.382-.95-1.148-.95-.766 0-1.148.343-1.148.95v.159c0 .607.382.95 1.148.95zm7.404 3.894c-2.125 0-3.327-1.412-3.327-3.63 0-2.191 1.162-3.617 3.248-3.617 2.296 0 3.22 1.664 3.22 3.538v.581h-4.448v.105c0 .911.488 1.492 1.531 1.492.819 0 1.267-.383 1.703-.832l.977 1.215c-.621.713-1.637 1.148-2.904 1.148zm-.04-5.808c-.779 0-1.267.568-1.267 1.426v.105h2.429v-.118c0-.845-.383-1.413-1.162-1.413zm6.198 2.746h-.832l-.62-3.749v-2.561h2.059v2.561l-.607 3.749zm-.436 3.062c-.831 0-1.174-.435-1.174-1.003v-.317c0-.567.343-1.003 1.174-1.003.832 0 1.175.436 1.175 1.003v.317c0 .568-.343 1.003-1.175 1.003z" fill="#F0B90B"/><path d="M61.422 97.795h-8.359V91.05c-7.406-.66-12.318-3.666-15.985-7.699l6.6-6.013c2.786 2.933 6.232 4.913 10.339 5.5v-13.2c-11-2.273-15.472-7.112-15.472-14.225 0-7.699 5.06-12.832 14.518-13.932V34.59h8.36v6.892c5.865.66 10.192 2.933 13.418 6.6l-6.673 6.012c-1.76-1.98-4.106-3.593-7.625-4.4v12.173C70.808 64.212 75.72 68.392 75.72 75.87c0 7.186-4.546 13.272-14.299 14.885v7.04zM48.665 55.12c0 2.786 1.613 4.253 5.353 5.28V49.546c-3.74.733-5.353 2.713-5.353 5.573zm16.938 21.557c0-2.126-.88-4.326-5.06-5.572V82.69c3.447-.953 5.06-3.226 5.06-6.013zM121.3 91.782H85.663V82.91h13.785V48.594h-.66L88.376 62.232l-7.04-5.499 12.246-16.131h16.865V82.91h10.852v8.873zm23.435.88c-12.099 0-19.064-6.306-19.064-14.885 0-6.526 3.959-10.705 10.045-12.392V64.8c-4.986-1.833-8.506-5.646-8.506-11.586 0-7.845 6.233-13.491 17.525-13.491 11.292 0 17.525 5.646 17.525 13.491 0 5.94-3.52 9.753-8.506 11.586v.586c6.086 1.687 10.046 5.866 10.046 12.392 0 8.58-6.966 14.885-19.065 14.885zm0-8.432c4.84 0 7.553-2.493 7.553-6.526v-1.466c0-4.033-2.713-6.526-7.553-6.526-4.839 0-7.552 2.493-7.552 6.525v1.467c0 4.033 2.713 6.526 7.552 6.526zm0-22.584c4.62 0 7.186-2.347 7.186-6.16v-1.173c0-3.813-2.566-6.159-7.186-6.159-4.619 0-7.186 2.346-7.186 6.16v1.172c0 3.813 2.567 6.16 7.186 6.16zm43.967 31.016c-13.419 0-19.725-9.752-19.725-26.47 0-16.718 6.306-26.47 19.725-26.47 13.418 0 19.724 9.752 19.724 26.47 0 16.718-6.306 26.47-19.724 26.47zm0-9.312c5.866 0 7.772-4.546 7.772-12.319v-9.679c0-7.772-1.906-12.318-7.772-12.318-5.866 0-7.773 4.546-7.773 12.319v9.678c0 7.773 1.907 12.32 7.773 12.32zm33.481-3.96c4.399 0 6.452 2.494 6.452 5.867v1.466c0 5.94-3.153 12.245-7.846 15.838h-7.332c3.446-3.226 5.939-6.232 7.186-10.119-3.373-.586-4.913-2.86-4.913-5.719v-1.466c0-3.373 2.053-5.867 6.453-5.867zm33.184 13.272c-13.418 0-19.724-9.752-19.724-26.47 0-16.718 6.306-26.47 19.724-26.47 13.419 0 19.725 9.752 19.725 26.47 0 16.718-6.306 26.47-19.725 26.47zm0-9.312c5.866 0 7.773-4.546 7.773-12.319v-9.679c0-7.772-1.907-12.318-7.773-12.318s-7.772 4.546-7.772 12.319v9.678c0 7.773 1.906 12.32 7.772 12.32zm43.967 9.312c-13.419 0-19.725-9.752-19.725-26.47 0-16.718 6.306-26.47 19.725-26.47 13.418 0 19.724 9.752 19.724 26.47 0 16.718-6.306 26.47-19.724 26.47zm0-9.312c5.866 0 7.772-4.546 7.772-12.319v-9.679c0-7.772-1.906-12.318-7.772-12.318-5.866 0-7.773 4.546-7.773 12.319v9.678c0 7.773 1.907 12.32 7.773 12.32zm43.966 9.312c-13.418 0-19.724-9.752-19.724-26.47 0-16.718 6.306-26.47 19.724-26.47 13.419 0 19.725 9.752 19.725 26.47 0 16.718-6.306 26.47-19.725 26.47zm0-9.312c5.866 0 7.773-4.546 7.773-12.319v-9.679c0-7.772-1.907-12.318-7.773-12.318s-7.772 4.546-7.772 12.319v9.678c0 7.773 1.906 12.32 7.772 12.32z" fill="url(#paint0_linear_225_14835)"/><path d="M76.718 11.164h1.953v5.65c0 1.294.475 1.94 1.663 1.94 1.188 0 1.663-.646 1.663-1.94v-5.65h1.954v5.439c0 2.719-.977 3.933-3.617 3.933s-3.617-1.214-3.617-3.933v-5.439zm11.066 9.214H85.83v-6.93h1.954v1.175h.079c.25-.726.831-1.333 1.927-1.333 1.412 0 2.165 1.003 2.165 2.745v4.343H90v-4.184c0-.885-.25-1.32-.963-1.32-.634 0-1.254.33-1.254 1.016v4.488zm8.734 0h-.884c-1.334 0-1.94-.673-1.94-1.9V10.61h1.953v8.25h.871v1.518zm3.983.158c-2.033 0-3.247-1.399-3.247-3.63 0-2.23 1.214-3.616 3.247-3.616s3.247 1.386 3.247 3.616c0 2.231-1.214 3.63-3.247 3.63zm0-1.544c.766 0 1.214-.502 1.214-1.373v-1.412c0-.872-.448-1.373-1.214-1.373s-1.215.502-1.215 1.373v1.412c0 .871.45 1.373 1.215 1.373zm7.438 1.544c-2.086 0-3.234-1.412-3.234-3.63 0-2.217 1.148-3.616 3.234-3.616 1.399 0 2.362.673 2.772 1.808l-1.584.686c-.119-.528-.502-.95-1.188-.95-.792 0-1.202.568-1.202 1.439v1.293c0 .872.41 1.426 1.202 1.426.778 0 1.095-.475 1.293-1.03l1.518.66c-.462 1.32-1.452 1.914-2.811 1.914zm4.02-.158V10.61h1.954v5.768h.079l.858-1.28 1.386-1.65h2.165l-2.31 2.653 2.574 4.277h-2.323l-1.558-2.93-.871.976v1.954h-1.954zm14.329 0h-1.162c-1.346 0-2.059-.7-2.059-2.02v-3.392h-.977v-1.518h.488c.528 0 .687-.264.687-.74v-1.135h1.755v1.875h1.373v1.518h-1.373v3.894h1.268v1.518zm1.462 0V10.61h1.954v4.013h.079c.251-.726.832-1.333 1.927-1.333 1.413 0 2.165 1.003 2.165 2.745v4.343h-1.954v-4.184c0-.885-.25-1.32-.963-1.32-.634 0-1.254.33-1.254 1.016v4.488h-1.954zm10.754.158c-2.125 0-3.326-1.412-3.326-3.63 0-2.19 1.162-3.616 3.247-3.616 2.297 0 3.221 1.663 3.221 3.537v.58h-4.448v.107c0 .91.488 1.491 1.531 1.491.818 0 1.267-.383 1.703-.831l.976 1.214c-.62.713-1.636 1.148-2.904 1.148zm-.039-5.808c-.779 0-1.267.568-1.267 1.426v.105h2.428v-.118c0-.845-.382-1.413-1.161-1.413zm10.782 5.808c-2.191 0-3.458-1.439-3.458-3.656 0-2.587 1.729-4.646 3.3-5.716h2.732c-2.244 1.61-3.59 2.865-3.96 4.62l.119.04c.317-.7.858-1.386 2.033-1.386 1.518 0 2.693 1.122 2.693 2.864 0 1.888-1.36 3.234-3.459 3.234zm0-1.544c.871 0 1.399-.502 1.399-1.4v-.237c0-.898-.528-1.4-1.399-1.4s-1.399.502-1.399 1.4v.238c0 .897.528 1.399 1.399 1.399zm9.195 1.386h-2.019v-3.604l-3.155-5.61h2.244l1.98 3.67h.026l1.901-3.67h2.178l-3.155 5.597v3.617zm11.129 0h-2.085l-.66-2.191h-3.076l-.66 2.19h-2.033l3.036-9.213h2.482l2.996 9.214zm-3.234-3.894l-1.029-3.498h-.066l-1.017 3.498h2.112zm7.629 3.894v-9.214h4.474c1.518 0 2.429.938 2.429 2.363 0 1.413-.779 1.94-1.716 1.98v.08c.871 0 2.073.58 2.073 2.164 0 1.452-1.017 2.627-2.376 2.627h-4.884zm2.006-3.802v2.112h2.31c.528 0 .858-.303.858-.831v-.45c0-.527-.33-.83-.858-.83h-2.31zm0-3.722v2.086h1.993c.528 0 .845-.317.845-.845v-.396c0-.528-.317-.845-.845-.845h-1.993zm10.784 7.524v-1.162h-.066c-.237.7-.805 1.32-1.94 1.32-1.412 0-2.165-.99-2.165-2.732v-4.356h1.954v4.184c0 .845.277 1.32.99 1.32.607 0 1.227-.343 1.227-1.003v-4.501h1.954v6.93h-1.954zm4.748-7.67c-.792 0-1.135-.409-1.135-.963v-.29c0-.555.343-.964 1.135-.964s1.136.41 1.136.964v.29c0 .555-.344.964-1.136.964zm-.976 7.67v-6.93h1.953v6.93h-1.953zm6.601 0h-.884c-1.333 0-1.94-.673-1.94-1.9V10.61h1.953v8.25h.871v1.518zm5.422 0v-1.162h-.066c-.198.753-.964 1.32-1.861 1.32-1.756 0-2.667-1.28-2.667-3.63 0-2.35.911-3.616 2.667-3.616.897 0 1.663.554 1.861 1.32h.066v-4h1.954v9.768h-1.954zm-1.28-1.426c.739 0 1.28-.383 1.28-1.016V15.89c0-.634-.541-1.017-1.28-1.017-.74 0-1.281.568-1.281 1.44v1.2c0 .872.541 1.44 1.281 1.44zm7.951 1.584c-2.125 0-3.326-1.412-3.326-3.63 0-2.19 1.162-3.616 3.247-3.616 2.297 0 3.221 1.663 3.221 3.537v.58h-4.448v.107c0 .91.488 1.491 1.531 1.491.818 0 1.267-.383 1.703-.831l.976 1.214c-.62.713-1.636 1.148-2.904 1.148zm-.039-5.808c-.779 0-1.267.568-1.267 1.426v.105h2.428v-.118c0-.845-.382-1.413-1.161-1.413zm6.514 5.65h-1.953v-6.93h1.953v1.505h.066c.159-.766.687-1.505 1.769-1.505h.343v1.822h-.488c-1.135 0-1.69.25-1.69 1.056v4.052zm5.512-5.465h-1.742V10.61h1.742v4.303zm4.153 5.623c-1.334 0-2.205-.449-2.918-1.24l1.149-1.162c.488.541 1.082.884 1.835.884.765 0 1.029-.25 1.029-.66 0-.343-.211-.515-.699-.58l-.753-.093c-1.571-.198-2.336-.884-2.336-2.138 0-1.334 1.043-2.258 2.693-2.258 1.452 0 2.125.396 2.824 1.083l-1.122 1.148c-.435-.435-1.016-.713-1.597-.713-.66 0-.924.238-.924.581 0 .37.159.568.726.647l.779.106c1.505.198 2.284.884 2.284 2.085 0 1.334-1.188 2.31-2.97 2.31zm7.527-.158v-9.214h4.474c1.518 0 2.429.938 2.429 2.363 0 1.413-.779 1.94-1.716 1.98v.08c.871 0 2.073.58 2.073 2.164 0 1.452-1.017 2.627-2.376 2.627h-4.884zm2.006-3.802v2.112h2.31c.528 0 .858-.303.858-.831v-.45c0-.527-.33-.83-.858-.83h-2.31zm0-3.722v2.086h1.993c.528 0 .845-.317.845-.845v-.396c0-.528-.317-.845-.845-.845h-1.993zm12.896 7.524h-1.082c-.7 0-1.201-.475-1.32-1.215h-.079c-.211.898-.977 1.373-2.033 1.373-1.386 0-2.152-.818-2.152-2.02 0-1.464 1.136-2.164 2.97-2.164h1.096v-.436c0-.673-.33-1.095-1.148-1.095-.779 0-1.188.396-1.492.818l-1.162-1.03c.555-.818 1.347-1.32 2.799-1.32 1.953 0 2.957.898 2.957 2.535v3.036h.646v1.518zm-3.788-1.201c.647 0 1.188-.264 1.188-.898v-.818h-.95c-.753 0-1.149.277-1.149.779v.198c0 .501.33.739.911.739zm9.35 1.2v-1.16h-.066c-.198.752-.964 1.32-1.861 1.32-1.756 0-2.667-1.281-2.667-3.63 0-2.35.911-3.617 2.667-3.617.897 0 1.663.554 1.861 1.32h.066v-4h1.954v9.768h-1.954zm-1.28-1.425c.739 0 1.28-.383 1.28-1.016V15.89c0-.634-.541-1.017-1.28-1.017-.74 0-1.281.568-1.281 1.44v1.2c0 .872.541 1.44 1.281 1.44zm11.476 1.927c0 1.466-.924 2.297-3.749 2.297-2.403 0-3.287-.607-3.287-1.61 0-.766.488-1.214 1.294-1.32V20.1c-.66-.12-1.004-.62-1.004-1.215 0-.726.647-1.095 1.294-1.227v-.053c-.832-.383-1.241-1.083-1.241-1.98 0-1.4.977-2.336 2.97-2.336.436 0 .832.04 1.175.132v-.264c0-.726.383-1.043 1.043-1.043h1.095v1.452h-1.531v.079c.805.383 1.188 1.095 1.188 1.98 0 1.386-.963 2.297-2.97 2.297-.462 0-.871-.053-1.227-.145a.649.649 0 00-.304.554c0 .33.238.528.832.528h2.006c1.69 0 2.416.74 2.416 2.02zm-1.835.264c0-.396-.291-.62-1.069-.62h-2.376a.888.888 0 00-.251.62c0 .502.396.74 1.452.74h.792c1.056 0 1.452-.238 1.452-.74zm-1.888-4.5c.766 0 1.149-.344 1.149-.951v-.159c0-.607-.383-.95-1.149-.95-.765 0-1.148.343-1.148.95v.159c0 .607.383.95 1.148.95zm7.404 3.893c-2.125 0-3.326-1.412-3.326-3.63 0-2.19 1.161-3.616 3.247-3.616 2.297 0 3.221 1.663 3.221 3.537v.58h-4.449v.107c0 .91.489 1.491 1.532 1.491.818 0 1.267-.383 1.702-.831l.977 1.214c-.62.713-1.637 1.148-2.904 1.148zm-.039-5.808c-.779 0-1.268.568-1.268 1.426v.105h2.429v-.118c0-.845-.383-1.413-1.161-1.413zm11.27 5.65H277.3c-1.347 0-2.059-.7-2.059-2.02v-3.392h-.977v-1.518h.488c.528 0 .687-.264.687-.74v-1.135h1.755v1.875h1.373v1.518h-1.373v3.894h1.267v1.518zm4.223.158c-2.033 0-3.247-1.399-3.247-3.63 0-2.23 1.214-3.616 3.247-3.616s3.247 1.386 3.247 3.616c0 2.231-1.214 3.63-3.247 3.63zm0-1.544c.766 0 1.215-.502 1.215-1.373v-1.412c0-.872-.449-1.373-1.215-1.373-.765 0-1.214.502-1.214 1.373v1.412c0 .871.449 1.373 1.214 1.373zm10.108 1.544c-1.333 0-2.204-.449-2.917-1.24l1.149-1.162c.488.541 1.082.884 1.834.884.766 0 1.03-.25 1.03-.66 0-.343-.211-.515-.7-.58l-.752-.093c-1.571-.198-2.336-.884-2.336-2.138 0-1.334 1.042-2.258 2.692-2.258 1.452 0 2.126.396 2.825 1.083l-1.122 1.148c-.435-.435-1.016-.713-1.597-.713-.66 0-.924.238-.924.581 0 .37.158.568.726.647l.779.106c1.505.198 2.283.884 2.283 2.085 0 1.334-1.188 2.31-2.97 2.31zm4.302-.158V10.61h1.954v4.013h.079c.251-.726.832-1.333 1.927-1.333 1.413 0 2.165 1.003 2.165 2.745v4.343h-1.953v-4.184c0-.885-.251-1.32-.964-1.32-.634 0-1.254.33-1.254 1.016v4.488h-1.954zm14.068 0h-1.083c-.699 0-1.201-.475-1.32-1.215h-.079c-.211.898-.977 1.373-2.033 1.373-1.386 0-2.151-.818-2.151-2.02 0-1.464 1.135-2.164 2.97-2.164h1.095v-.436c0-.673-.33-1.095-1.148-1.095-.779 0-1.188.396-1.492.818l-1.161-1.03c.554-.818 1.346-1.32 2.798-1.32 1.954 0 2.957.898 2.957 2.535v3.036h.647v1.518zm-3.789-1.201c.647 0 1.188-.264 1.188-.898v-.818h-.95c-.752 0-1.148.277-1.148.779v.198c0 .501.33.739.91.739zm7.054 1.2h-1.954v-6.93h1.954v1.506h.066c.158-.766.686-1.505 1.768-1.505h.344v1.822h-.489c-1.135 0-1.689.25-1.689 1.056v4.052zm6.209.16c-2.125 0-3.326-1.413-3.326-3.63 0-2.192 1.161-3.617 3.247-3.617 2.297 0 3.221 1.663 3.221 3.537v.58h-4.449v.107c0 .91.489 1.491 1.531 1.491.819 0 1.268-.383 1.703-.831l.977 1.214c-.62.713-1.637 1.148-2.904 1.148zm-.04-5.809c-.778 0-1.267.568-1.267 1.426v.105h2.429v-.118c0-.845-.383-1.413-1.162-1.413z" fill="#fff"/><path d="M366.65 15.761h-37.181" stroke="url(#paint1_linear_225_14835)" stroke-width="2.2"/><path d="M33.35 15.761h37.18" stroke="url(#paint2_linear_225_14835)" stroke-width="2.2"/><path d="M167.283 118.251c-.792 0-1.135-.409-1.135-.963v-.291c0-.554.343-.963 1.135-.963s1.135.409 1.135.963v.291c0 .554-.343.963-1.135.963zm-.977 7.669v-6.93h1.954v6.93h-1.954zm5.731 0h-1.954v-6.93h1.954v1.175h.079c.251-.726.832-1.333 1.927-1.333 1.413 0 2.165 1.003 2.165 2.746v4.342h-1.954v-4.184c0-.884-.25-1.32-.963-1.32-.634 0-1.254.33-1.254 1.016v4.488zm11.141-3.379v3.379h-2.006v-9.213h4.369c1.703 0 2.785 1.188 2.785 2.943 0 1.241-.554 2.231-1.676 2.654l1.808 3.616h-2.231l-1.61-3.379h-1.439zm0-1.689h2.112c.594 0 .964-.317.964-.911v-.581c0-.594-.37-.911-.964-.911h-2.112v2.403zm9.48 5.227c-2.125 0-3.326-1.413-3.326-3.63 0-2.191 1.161-3.617 3.247-3.617 2.297 0 3.221 1.663 3.221 3.538v.58h-4.449v.106c0 .911.489 1.492 1.531 1.492.819 0 1.268-.383 1.703-.832l.977 1.214c-.62.713-1.637 1.149-2.904 1.149zm-.04-5.808c-.778 0-1.267.567-1.267 1.425v.106h2.429v-.119c0-.845-.383-1.412-1.162-1.412zm5.777 5.649l-1.94-6.93h1.887l.674 2.799.475 2.112h.053l.554-2.112.792-2.799h1.782l.805 2.799.568 2.112h.053l.475-2.112.673-2.799h1.808l-1.914 6.93h-2.046l-.844-2.93-.489-1.795h-.039l-.476 1.795-.844 2.93h-2.007zm15.842 0h-1.082c-.7 0-1.201-.475-1.32-1.214h-.079c-.212.898-.977 1.373-2.033 1.373-1.386 0-2.152-.819-2.152-2.02 0-1.465 1.135-2.165 2.97-2.165h1.096v-.435c0-.673-.33-1.096-1.149-1.096-.778 0-1.188.396-1.491.819l-1.162-1.03c.555-.818 1.347-1.32 2.799-1.32 1.953 0 2.956.898 2.956 2.534v3.036h.647v1.518zm-3.788-1.201c.647 0 1.188-.264 1.188-.897v-.819h-.951c-.752 0-1.148.277-1.148.779v.198c0 .502.33.739.911.739zm7.053 1.201h-1.954v-6.93h1.954v1.505h.066c.158-.765.686-1.505 1.769-1.505h.343v1.822h-.488c-1.136 0-1.69.251-1.69 1.056v4.052zm7.582 0v-1.161h-.066c-.198.752-.964 1.32-1.861 1.32-1.756 0-2.667-1.281-2.667-3.63 0-2.35.911-3.617 2.667-3.617.897 0 1.663.554 1.861 1.32h.066v-4h1.954v9.768h-1.954zm-1.28-1.425c.739 0 1.28-.383 1.28-1.017v-2.046c0-.633-.541-1.016-1.28-1.016-.74 0-1.281.568-1.281 1.439v1.201c0 .871.541 1.439 1.281 1.439zm7.41 1.584c-1.333 0-2.204-.449-2.917-1.241l1.148-1.162c.489.542 1.083.885 1.835.885.766 0 1.03-.251 1.03-.66 0-.343-.212-.515-.7-.581l-.752-.092c-1.571-.198-2.337-.885-2.337-2.139 0-1.333 1.043-2.257 2.693-2.257 1.452 0 2.125.396 2.825 1.082l-1.122 1.149c-.436-.436-1.017-.713-1.597-.713-.66 0-.924.238-.924.581 0 .369.158.567.726.647l.778.105c1.505.198 2.284.885 2.284 2.086 0 1.333-1.188 2.31-2.97 2.31z" fill="#fff"/><path d="M33.35 121.427h125.27" stroke="url(#paint3_linear_225_14835)" stroke-width="2.2"/><path d="M366.65 121.427H241.497" stroke="url(#paint4_linear_225_14835)" stroke-width="2.2"/><defs><linearGradient id="paint0_linear_225_14835" x1="200" y1="38.782" x2="200" y2="93.776" gradientUnits="userSpaceOnUse"><stop stop-color="#F0B90B"/><stop offset="1" stop-color="#F8D33A"/></linearGradient><linearGradient id="paint1_linear_225_14835" x1="366.65" y1="15.761" x2="329.469" y2="15.761" gradientUnits="userSpaceOnUse"><stop stop-color="#F8D33A"/><stop offset="1" stop-color="#F8D33A" stop-opacity="0"/></linearGradient><linearGradient id="paint2_linear_225_14835" x1="33.35" y1="15.761" x2="70.531" y2="15.761" gradientUnits="userSpaceOnUse"><stop stop-color="#F8D33A"/><stop offset="1" stop-color="#F8D33A" stop-opacity="0"/></linearGradient><linearGradient id="paint3_linear_225_14835" x1="55.124" y1="121.427" x2="158.619" y2="121.427" gradientUnits="userSpaceOnUse"><stop stop-color="#F8D33A"/><stop offset="1" stop-color="#F8D33A" stop-opacity="0"/></linearGradient><linearGradient id="paint4_linear_225_14835" x1="344.897" y1="121.427" x2="241.497" y2="121.427" gradientUnits="userSpaceOnUse"><stop stop-color="#F8D33A"/><stop offset="1" stop-color="#F8D33A" stop-opacity="0"/></linearGradient></defs></svg>